<svg width="156" height="24" viewBox="0 0 156 24" fill="none" xmlns="http://www.w3.org/2000/svg">
<path fill-rule="evenodd" clip-rule="evenodd" d="M16.7019 2.37418C16.7019 3.02168 16.9428 3.58053 17.4286 4.0546C17.9143 4.52866 18.5068 4.76377 19.2137 4.76377C19.9206 4.76377 20.5091 4.52866 20.9909 4.0546C21.4688 3.58053 21.7097 3.03324 21.7097 2.37418C21.7097 1.71511 21.4727 1.15625 20.9909 0.693753C20.5091 0.231251 19.9167 0 19.2137 0C18.5107 0 17.9143 0.231251 17.4286 0.693753C16.9428 1.16011 16.7019 1.72667 16.7019 2.37418ZM21.5517 6.90669H16.8599V23.6531H21.5517V6.90669ZM15.1261 1.10996H3.55443C1.5916 1.10996 0 2.66319 0 4.57872V23.6492H4.83403V14.7769H14.2296V11.0422H4.83403V4.99883H15.1261V1.10996ZM27.1717 22.9361C25.9118 22.2347 24.9403 21.2326 24.257 19.9299C23.5738 18.6272 23.2342 17.0855 23.2342 15.3049V15.2894C23.2342 13.5088 23.5738 11.9671 24.257 10.6567C24.9403 9.35015 25.896 8.34036 27.1322 7.62733C28.3644 6.91431 29.8178 6.55587 31.4923 6.55587C33.1668 6.55587 34.6162 6.90275 35.8366 7.5965C37.0569 8.29025 38.0009 9.26536 38.6683 10.5257C39.3357 11.786 39.6675 13.2583 39.6675 14.9464V16.3686H27.8608C27.8796 17.212 28.0369 17.9404 28.3328 18.5539C28.6487 19.2091 29.099 19.714 29.6835 20.0609C30.2719 20.4117 30.967 20.5851 31.7806 20.5851C32.4204 20.5851 32.9773 20.4849 33.4433 20.2883C33.9133 20.0918 34.2963 19.8412 34.5965 19.5368C34.8966 19.2361 35.0981 18.9278 35.2047 18.6156L35.2363 18.5231H39.5253L39.4779 18.6965C39.3515 19.3094 39.0988 19.9299 38.7236 20.5543C38.3484 21.1786 37.8468 21.7529 37.211 22.2732C36.5751 22.7935 35.801 23.2098 34.8887 23.522C33.9764 23.8342 32.9062 23.9922 31.6779 23.9922C29.9283 23.9922 28.4236 23.6415 27.1638 22.9361H27.1717ZM35.1798 13.478H27.9152C27.9866 12.9179 28.1258 12.4207 28.3328 11.9864C28.6448 11.3273 29.0832 10.8224 29.644 10.4794C30.2048 10.1364 30.8485 9.96297 31.5713 9.96297C32.294 9.96297 32.9338 10.1326 33.4828 10.464C34.0317 10.7955 34.4622 11.2927 34.7703 11.9556C34.9744 12.3923 35.1109 12.9002 35.1798 13.478ZM41.7448 21.4562C42.3609 22.2502 43.2297 22.8746 44.3434 23.3217L44.3395 23.3294C45.4532 23.7765 46.7999 24 48.3797 24C49.8528 24 51.1521 23.7726 52.2777 23.3217C53.4033 22.8707 54.2879 22.2386 54.9277 21.4254C55.5675 20.6122 55.8874 19.6602 55.8874 18.5656V18.5502C55.8874 17.3207 55.4964 16.3417 54.7105 15.6133C53.9246 14.8849 52.6332 14.3376 50.8283 13.9714L47.9137 13.3625C47.3371 13.2391 46.875 13.0927 46.5353 12.9269C46.1957 12.7612 45.9548 12.5646 45.8087 12.3411C45.6625 12.1137 45.5914 11.8632 45.5914 11.5818V11.5664C45.5914 11.2041 45.6981 10.8919 45.9113 10.6298C46.1246 10.3716 46.4287 10.1673 46.8236 10.0209C47.2186 9.87443 47.6846 9.8012 48.2178 9.8012C49.0827 9.8012 49.762 10.0016 50.2596 10.4024C50.7572 10.8033 51.0416 11.3005 51.1166 11.894L51.1324 12.0174H55.4372V11.8593C55.4056 10.8804 55.1015 9.99005 54.5328 9.18838C53.9641 8.38671 53.1466 7.75077 52.0842 7.27671C51.0218 6.80264 49.6672 6.56754 48.2178 6.56754C46.7683 6.56754 45.5006 6.78337 44.4185 7.21504C43.3363 7.64671 42.4991 8.25182 41.9067 9.03422C41.3143 9.81276 41.0181 10.7416 41.0181 11.8131V11.8285C41.0181 12.6649 41.2037 13.401 41.5789 14.0408C41.9501 14.6806 42.5109 15.2163 43.2574 15.648C44.0038 16.0797 44.9319 16.4111 46.0417 16.6385L48.9563 17.2475C49.8015 17.4248 50.386 17.6483 50.7177 17.9181C51.0495 18.1917 51.2153 18.5502 51.2153 18.9973V19.0127C51.2153 19.375 51.1008 19.691 50.8717 19.9493C50.6427 20.2113 50.3188 20.4118 49.9041 20.5505C49.4895 20.6931 48.98 20.7625 48.3836 20.7625C47.4555 20.7625 46.7289 20.5813 46.2075 20.2152C45.6862 19.8529 45.3505 19.3403 45.2004 18.6851L45.1689 18.5425H40.6073L40.6231 18.6851C40.7535 19.7373 41.1247 20.6584 41.7448 21.4562ZM60.1489 22.8206C59.2326 22.0382 58.7705 20.7548 58.7705 18.9626V10.3408H56.3851V6.90285H58.7705V2.80971H63.494V6.90285H66.6298V10.3408H63.494V18.4615C63.494 19.2439 63.6717 19.7874 64.0311 20.0957C64.3905 20.404 64.9197 20.5582 65.6227 20.5582C65.836 20.5582 66.0216 20.5505 66.1835 20.5351C66.3454 20.5197 66.4916 20.5004 66.6298 20.4811V23.8227C66.3731 23.8651 66.0571 23.9036 65.678 23.9383C65.2989 23.973 64.8644 23.9923 64.3747 23.9923C62.4751 23.9923 61.0651 23.603 60.1489 22.8206ZM68.2609 21.4848C68.7467 22.2479 69.4259 22.8491 70.2948 23.2808L70.2988 23.2885C71.1676 23.7202 72.1747 23.936 73.3161 23.936C74.0625 23.936 74.7615 23.8281 75.4053 23.6084C76.053 23.3926 76.6256 23.0727 77.1272 22.6564C77.6288 22.2402 78.0435 21.7507 78.3752 21.188H78.47V23.6701H83.1421V12.1885C83.1421 11.0631 82.8419 10.0802 82.2377 9.23618C81.6374 8.39211 80.7922 7.7369 79.7022 7.2744C78.6122 6.8119 77.3484 6.58065 75.8437 6.58065C74.339 6.58065 73.0396 6.80804 71.9456 7.25898C70.8517 7.70992 70.0025 8.33815 69.3865 9.13982C68.7703 9.94149 68.4149 10.8549 68.3201 11.8879L68.3043 12.0767H72.5933L72.6249 11.9341C72.7434 11.3945 73.0554 10.9513 73.5688 10.6006C74.0822 10.2498 74.7339 10.0764 75.6501 10.0764C76.5664 10.0764 77.2654 10.2884 77.7473 10.7162C78.2251 11.144 78.466 11.726 78.466 12.466V13.4854L74.2284 13.7417C72.8105 13.8381 71.602 14.0924 70.6029 14.5087C69.6037 14.9249 68.8414 15.4954 68.3201 16.22C67.7948 16.9445 67.5342 17.8156 67.5342 18.8369V18.8678C67.5342 19.8467 67.7751 20.7178 68.2609 21.4848ZM78.466 16.3409L74.9314 16.5707C74.0349 16.6208 73.3516 16.8251 72.8816 17.1796C72.4117 17.5342 72.1786 18.0083 72.1786 18.6018V18.6327C72.1786 19.2455 72.4196 19.7273 72.8974 20.078C73.3793 20.4287 74.023 20.6022 74.8326 20.6022C75.5277 20.6022 76.1478 20.4711 76.6967 20.2052C77.2457 19.9392 77.6801 19.5769 77.9921 19.1106C78.3081 18.6481 78.466 18.1278 78.466 17.5574V16.3409ZM94.07 1.10996H105.642V4.99883H95.3496V11.0422H104.745V14.7769H95.3496V23.6492H90.5155V4.57872C90.5155 2.66319 92.1071 1.10996 94.07 1.10996ZM111.897 1.10996H107.225V23.6492H111.897V1.10996ZM117.715 22.9517C116.443 22.2579 115.46 21.2597 114.761 19.9531C114.062 18.6465 113.714 17.0856 113.714 15.2741V15.2433C113.714 13.4434 114.07 11.894 114.777 10.5952C115.487 9.29629 116.475 8.30191 117.747 7.60431C119.014 6.9067 120.503 6.55982 122.213 6.55982C123.923 6.55982 125.428 6.9067 126.704 7.60045C127.979 8.2942 128.967 9.28858 129.674 10.5836C130.381 11.8786 130.728 13.4357 130.728 15.2471V15.278C130.728 17.101 130.381 18.662 129.682 19.9647C128.982 21.2674 127.999 22.2618 126.727 22.9555C125.456 23.6493 123.959 23.9961 122.229 23.9961C120.499 23.9961 118.987 23.6493 117.715 22.9555V22.9517ZM124.212 19.8105C124.765 19.4097 125.195 18.8277 125.499 18.0607C125.803 17.2937 125.957 16.3649 125.957 15.2741V15.2433C125.957 14.1718 125.803 13.2507 125.495 12.4876C125.187 11.7244 124.753 11.1386 124.192 10.7378C123.631 10.3369 122.972 10.1365 122.217 10.1365C121.463 10.1365 120.815 10.3408 120.258 10.7455C119.698 11.1502 119.263 11.736 118.955 12.4953C118.647 13.2545 118.493 14.1718 118.493 15.2433V15.2741C118.493 16.3687 118.643 17.2976 118.947 18.0607C119.251 18.8277 119.686 19.4097 120.25 19.8105C120.815 20.2113 121.483 20.4117 122.253 20.4117C123.023 20.4117 123.667 20.2113 124.223 19.8105H124.212ZM135.416 6.9029H130.7L135.278 23.6493H140.191L143.279 11.8093H143.374L146.478 23.6493H151.454L156 6.9029H151.391L148.781 19.3211H148.686L145.629 6.9029H141.146L138.105 19.3211H138.011L135.416 6.9029Z" fill="white"/>
</svg>
