<svg width="52" height="30" viewBox="0 0 52 30" fill="none" xmlns="http://www.w3.org/2000/svg">
<g clip-path="url(#clip0_462_486)">
<path d="M0 5.24022C0 4.48604 0.134764 3.78713 0.404291 3.14348C0.673819 2.49983 1.0311 1.9472 1.47613 1.48885C1.92117 1.02724 2.44769 0.666405 3.05256 0.399843C3.65742 0.133281 4.28423 0 4.93298 0H34.1015V7.04439H6.99204V13.793H25.182V20.8373H6.99204V29.3478H0V5.24022Z" fill="white"/>
<path d="M23.5837 5.24022C23.5837 4.48604 23.7185 3.78713 23.988 3.14348C24.2576 2.49983 24.6148 1.9472 25.0599 1.48885C25.5049 1.02724 26.0314 0.666405 26.6363 0.399843C27.2412 0.133281 27.868 0 28.5167 0H52.0001V7.04439H30.5789V13.793H48.7689V20.8373H30.5789V29.3478H23.5869V5.24022H23.5837Z" fill="white"/>
</g>
<defs>
<clipPath id="clip0_462_486">
<rect width="52" height="30" fill="white"/>
</clipPath>
</defs>
</svg>
