<svg width="18" height="24" viewBox="0 0 18 24" fill="none" xmlns="http://www.w3.org/2000/svg">
<mask id="path-1-inside-1_535_2518" fill="white">
<path fill-rule="evenodd" clip-rule="evenodd" d="M18 11.5C18 6.52944 13.9706 2.5 9 2.5C4.02944 2.5 0 6.52944 0 11.5V20.5H9H18V11.5Z"/>
</mask>
<path d="M0 20.5H-2V22.5H0V20.5ZM18 20.5V22.5H20V20.5H18ZM9 4.5C12.866 4.5 16 7.63401 16 11.5H20C20 5.42487 15.0751 0.5 9 0.5V4.5ZM2 11.5C2 7.63401 5.13401 4.5 9 4.5V0.5C2.92487 0.5 -2 5.42487 -2 11.5H2ZM2 20.5V11.5H-2V20.5H2ZM9 18.5H0V22.5H9V18.5ZM18 18.5H9V22.5H18V18.5ZM16 11.5V20.5H20V11.5H16Z" fill="white" mask="url(#path-1-inside-1_535_2518)"/>
<rect x="8" width="2" height="3" fill="white"/>
<path fill-rule="evenodd" clip-rule="evenodd" d="M5 20C5 22.2091 6.79086 24 9 24C11.2091 24 13 22.2091 13 20H11C11 21.1046 10.1046 22 9 22C7.89543 22 7 21.1046 7 20H5Z" fill="white"/>
</svg>
