<svg width="753" height="753" viewBox="0 0 753 753" fill="none" xmlns="http://www.w3.org/2000/svg">
<path fill-rule="evenodd" clip-rule="evenodd" d="M89.9596 329.063C89.9596 197.01 197.01 89.9596 329.063 89.9596C461.116 89.9596 568.166 197.01 568.166 329.063C568.166 461.116 461.116 568.166 329.063 568.166C197.01 568.166 89.9596 461.116 89.9596 329.063ZM329.063 0C147.326 0 0 147.326 0 329.063C0 510.799 147.326 658.126 329.063 658.126C403.722 658.126 472.573 633.262 527.79 591.364L676.215 739.789C693.78 757.355 722.26 757.355 739.826 739.789C757.391 722.223 757.391 693.744 739.826 676.178L591.396 527.748C633.275 472.539 658.125 403.703 658.125 329.063C658.125 147.326 510.799 0 329.063 0Z" fill="#0064FF"/>
</svg>
